<?xml version="1.0" encoding="UTF-8"?>
<svg xmlns="http://www.w3.org/2000/svg" xmlns:xlink="http://www.w3.org/1999/xlink" width="80.829pt" height="10.959pt" viewBox="0 0 80.829 10.959" version="1.1">
<defs>
<clipPath id="clip1">
  <path d="M 35 0 L 46 0 L 46 10.960938 L 35 10.960938 Z M 35 0 "/>
</clipPath>
<clipPath id="clip2">
  <path d="M 21 0 L 60 0 L 60 10.960938 L 21 10.960938 Z M 21 0 "/>
</clipPath>
<clipPath id="clip3">
  <path d="M 0 0 L 52 0 L 52 10.960938 L 0 10.960938 Z M 0 0 "/>
</clipPath>
<clipPath id="clip4">
  <path d="M 28 0 L 80.828125 0 L 80.828125 10.960938 L 28 10.960938 Z M 28 0 "/>
</clipPath>
</defs>
<g id="surface1">
<g clip-path="url(#clip1)" clip-rule="nonzero">
<path style=" stroke:none;fill-rule:nonzero;fill:rgb(69.999695%,69.999695%,69.999695%);fill-opacity:1;" d="M 45.394531 5.480469 C 45.394531 2.730469 43.164062 0.5 40.414062 0.5 C 37.664062 0.5 35.433594 2.730469 35.433594 5.480469 C 35.433594 8.230469 37.664062 10.460938 40.414062 10.460938 C 43.164062 10.460938 45.394531 8.230469 45.394531 5.480469 Z M 45.394531 5.480469 "/>
</g>
<g clip-path="url(#clip2)" clip-rule="nonzero">
<path style="fill:none;stroke-width:0.99628;stroke-linecap:butt;stroke-linejoin:miter;stroke:rgb(0%,0%,0%);stroke-opacity:1;stroke-miterlimit:10;" d="M 4.980531 -0.00046875 C 4.980531 2.749531 2.750063 4.98 0.0000625 4.98 C -2.749937 4.98 -4.980406 2.749531 -4.980406 -0.00046875 C -4.980406 -2.750469 -2.749937 -4.980937 0.0000625 -4.980937 C 2.750063 -4.980937 4.980531 -2.750469 4.980531 -0.00046875 Z M 4.980531 -0.00046875 " transform="matrix(1,0,0,-1,40.414,5.48)"/>
</g>
<g clip-path="url(#clip3)" clip-rule="nonzero">
<path style="fill:none;stroke-width:1.19553;stroke-linecap:butt;stroke-linejoin:miter;stroke:rgb(94.119263%,94.119263%,94.119263%);stroke-opacity:1;stroke-miterlimit:10;" d="M -36.8515 -0.00046875 C -35.605406 -0.00046875 -34.984312 2.491719 -33.738219 2.491719 C -32.828062 2.491719 -32.039 1.245625 -31.246031 -0.00046875 C -30.453062 -1.246562 -29.664 -2.48875 -28.75775 -2.48875 C -27.847594 -2.48875 -27.058531 -1.246562 -26.265562 -0.00046875 C -25.472594 1.245625 -24.683531 2.491719 -23.773375 2.491719 C -22.867125 2.491719 -22.078062 1.245625 -21.285094 -0.00046875 C -20.492125 -1.246562 -19.703062 -2.48875 -18.792906 -2.48875 C -17.88275 -2.48875 -17.093687 -1.246562 -16.304625 -0.00046875 C -15.511656 1.245625 -14.722594 2.491719 -13.812437 2.491719 C -12.902281 2.491719 -12.113219 1.245625 -11.32025 -0.00046875 C -10.527281 -1.246562 -9.738219 -2.48875 -8.831969 -2.48875 C -7.585875 -2.48875 -6.960875 -0.00046875 -5.718687 -0.00046875 L -5.480406 -0.00046875 " transform="matrix(1,0,0,-1,40.414,5.48)"/>
</g>
<g clip-path="url(#clip4)" clip-rule="nonzero">
<path style="fill:none;stroke-width:1.19553;stroke-linecap:butt;stroke-linejoin:miter;stroke:rgb(94.119263%,94.119263%,94.119263%);stroke-opacity:1;stroke-miterlimit:10;" d="M 36.851625 -0.00046875 C 35.605531 -0.00046875 34.984438 -2.48875 33.738344 -2.48875 C 32.828188 -2.48875 32.039125 -1.246562 31.246156 -0.00046875 C 30.453188 1.245625 29.664125 2.491719 28.757875 2.491719 C 27.847719 2.491719 27.058656 1.245625 26.265688 -0.00046875 C 25.472719 -1.246562 24.683656 -2.48875 23.7735 -2.48875 C 22.86725 -2.48875 22.078188 -1.246562 21.285219 -0.00046875 C 20.49225 1.245625 19.703188 2.491719 18.793031 2.491719 C 17.882875 2.491719 17.093813 1.245625 16.300844 -0.00046875 C 15.511781 -1.246562 14.722719 -2.48875 13.812563 -2.48875 C 12.902406 -2.48875 12.113344 -1.246562 11.320375 -0.00046875 C 10.527406 1.245625 9.738344 2.491719 8.832094 2.491719 C 7.586 2.491719 6.961 -0.00046875 5.718813 -0.00046875 L 5.480531 -0.00046875 " transform="matrix(1,0,0,-1,40.414,5.48)"/>
</g>
</g>
</svg>
